G04 Layer: BottomPasteMaskLayer*
G04 EasyEDA v6.5.57, 2026-08-18 01:07:36*
G04 068f1d916a534ec4bf71ff9ef772e69e,740549724bca42c3b7f260a0217f19ee,10*
G04 Gerber Generator version 0.2*
G04 Scale: 100 percent, Rotated: No, Reflected: No *
G04 Dimensions in millimeters *
G04 leading zeros omitted , absolute positions ,4 integer and 5 decimal *
%FSLAX45Y45*%
%MOMM*%

%ADD10R,2.5000X2.5500*%
%ADD11R,0.0128X2.5500*%

%LPD*%
G36*
X27529282Y-22305924D02*
G01*
X27529282Y-22415906D01*
X27559304Y-22415906D01*
X27559304Y-22305924D01*
G37*
G36*
X27579320Y-22305924D02*
G01*
X27579320Y-22415906D01*
X27609342Y-22415906D01*
X27609342Y-22305924D01*
G37*
G36*
X27069288Y-22305924D02*
G01*
X27069288Y-22415906D01*
X27129282Y-22415906D01*
X27129282Y-22305924D01*
G37*
G36*
X27479294Y-22305924D02*
G01*
X27479294Y-22415906D01*
X27509317Y-22415906D01*
X27509317Y-22305924D01*
G37*
G36*
X27629307Y-22305924D02*
G01*
X27629307Y-22415906D01*
X27689302Y-22415906D01*
X27689302Y-22305924D01*
G37*
G36*
X27709317Y-22305924D02*
G01*
X27709317Y-22415906D01*
X27769312Y-22415906D01*
X27769312Y-22305924D01*
G37*
G36*
X27429307Y-22305924D02*
G01*
X27429307Y-22415906D01*
X27459330Y-22415906D01*
X27459330Y-22305924D01*
G37*
G36*
X27379269Y-22305924D02*
G01*
X27379269Y-22415906D01*
X27409292Y-22415906D01*
X27409292Y-22305924D01*
G37*
G36*
X27149298Y-22305924D02*
G01*
X27149298Y-22415906D01*
X27209292Y-22415906D01*
X27209292Y-22305924D01*
G37*
G36*
X27329282Y-22305924D02*
G01*
X27329282Y-22415906D01*
X27359305Y-22415906D01*
X27359305Y-22305924D01*
G37*
G36*
X27279295Y-22305924D02*
G01*
X27279295Y-22415906D01*
X27309318Y-22415906D01*
X27309318Y-22305924D01*
G37*
G36*
X27229308Y-22305924D02*
G01*
X27229308Y-22415906D01*
X27259330Y-22415906D01*
X27259330Y-22305924D01*
G37*
G36*
X27850287Y-22205950D02*
G01*
X27844343Y-22206356D01*
X27838450Y-22207423D01*
X27832710Y-22209048D01*
X27827122Y-22211233D01*
X27821788Y-22213925D01*
X27816759Y-22217176D01*
X27812085Y-22220936D01*
X27807818Y-22225101D01*
X27803957Y-22229673D01*
X27800604Y-22234601D01*
X27797760Y-22239884D01*
X27795423Y-22245370D01*
X27793645Y-22251111D01*
X27792476Y-22256953D01*
X27791867Y-22262896D01*
X27791816Y-22345904D01*
X27792070Y-22351898D01*
X27792984Y-22357791D01*
X27794458Y-22363582D01*
X27796489Y-22369221D01*
X27799131Y-22374606D01*
X27802230Y-22379736D01*
X27805837Y-22384461D01*
X27809901Y-22388880D01*
X27814371Y-22392843D01*
X27819248Y-22396297D01*
X27824430Y-22399294D01*
X27829865Y-22401784D01*
X27835555Y-22403663D01*
X27841397Y-22404984D01*
X27847289Y-22405746D01*
X27853284Y-22405898D01*
X27859278Y-22405441D01*
X27865171Y-22404425D01*
X27870912Y-22402800D01*
X27876449Y-22400615D01*
X27881783Y-22397872D01*
X27886812Y-22394621D01*
X27891486Y-22390912D01*
X27895803Y-22386747D01*
X27899614Y-22382124D01*
X27903017Y-22377196D01*
X27905862Y-22371964D01*
X27908199Y-22366427D01*
X27909926Y-22360737D01*
X27911145Y-22354844D01*
X27911704Y-22348901D01*
X27911806Y-22265894D01*
X27911501Y-22259950D01*
X27910586Y-22254006D01*
X27909113Y-22248215D01*
X27907081Y-22242627D01*
X27904490Y-22237242D01*
X27901392Y-22232112D01*
X27897785Y-22227336D01*
X27893670Y-22222968D01*
X27889200Y-22219005D01*
X27884374Y-22215500D01*
X27879192Y-22212503D01*
X27873706Y-22210064D01*
X27868067Y-22208134D01*
X27862225Y-22206813D01*
X27856281Y-22206102D01*
G37*
G36*
X26985315Y-22205950D02*
G01*
X26979321Y-22206356D01*
X26973428Y-22207423D01*
X26967688Y-22209048D01*
X26962150Y-22211233D01*
X26956816Y-22213925D01*
X26951787Y-22217176D01*
X26947114Y-22220936D01*
X26942796Y-22225101D01*
X26938986Y-22229673D01*
X26935582Y-22234601D01*
X26932737Y-22239884D01*
X26930400Y-22245370D01*
X26928673Y-22251111D01*
X26927454Y-22256953D01*
X26926895Y-22262896D01*
X26926794Y-22345904D01*
X26927098Y-22351898D01*
X26928013Y-22357791D01*
X26929486Y-22363582D01*
X26931518Y-22369221D01*
X26934109Y-22374606D01*
X26937208Y-22379736D01*
X26940814Y-22384461D01*
X26944929Y-22388880D01*
X26949400Y-22392843D01*
X26954226Y-22396297D01*
X26959407Y-22399294D01*
X26964894Y-22401784D01*
X26970532Y-22403663D01*
X26976374Y-22404984D01*
X26982318Y-22405746D01*
X26988312Y-22405898D01*
X26994256Y-22405441D01*
X27000149Y-22404425D01*
X27005889Y-22402800D01*
X27011477Y-22400615D01*
X27016811Y-22397872D01*
X27021840Y-22394621D01*
X27026514Y-22390912D01*
X27030781Y-22386747D01*
X27034642Y-22382124D01*
X27037995Y-22377196D01*
X27040839Y-22371964D01*
X27043176Y-22366427D01*
X27044954Y-22360737D01*
X27046123Y-22354844D01*
X27046732Y-22348901D01*
X27046783Y-22265894D01*
X27046529Y-22259950D01*
X27045615Y-22254006D01*
X27044142Y-22248215D01*
X27042110Y-22242627D01*
X27039468Y-22237242D01*
X27036369Y-22232112D01*
X27032762Y-22227336D01*
X27028698Y-22222968D01*
X27024228Y-22219005D01*
X27019351Y-22215500D01*
X27014170Y-22212503D01*
X27008734Y-22210064D01*
X27003044Y-22208134D01*
X26997202Y-22206813D01*
X26991310Y-22206102D01*
G37*
G36*
X26985315Y-21810929D02*
G01*
X26979321Y-21811386D01*
X26973428Y-21812402D01*
X26967688Y-21814028D01*
X26962150Y-21816212D01*
X26956816Y-21818955D01*
X26951787Y-21822156D01*
X26947114Y-21825915D01*
X26942796Y-21830080D01*
X26938986Y-21834652D01*
X26935582Y-21839631D01*
X26932737Y-21844863D01*
X26930400Y-21850400D01*
X26928673Y-21856090D01*
X26927454Y-21861932D01*
X26926895Y-21867926D01*
X26926794Y-21900896D01*
X26927098Y-21906890D01*
X26928013Y-21912783D01*
X26929486Y-21918574D01*
X26931518Y-21924213D01*
X26934109Y-21929598D01*
X26937208Y-21934678D01*
X26940814Y-21939453D01*
X26944929Y-21943822D01*
X26949400Y-21947784D01*
X26954226Y-21951289D01*
X26959407Y-21954286D01*
X26964894Y-21956725D01*
X26970532Y-21958655D01*
X26976374Y-21959976D01*
X26982318Y-21960738D01*
X26988312Y-21960890D01*
X26994256Y-21960433D01*
X27000149Y-21959417D01*
X27005889Y-21957792D01*
X27011477Y-21955607D01*
X27016811Y-21952864D01*
X27021840Y-21949613D01*
X27026514Y-21945904D01*
X27030781Y-21941688D01*
X27034642Y-21937116D01*
X27037995Y-21932188D01*
X27040839Y-21926905D01*
X27043176Y-21921419D01*
X27044954Y-21915678D01*
X27046123Y-21909836D01*
X27046732Y-21903893D01*
X27046783Y-21870873D01*
X27046529Y-21864929D01*
X27045615Y-21858986D01*
X27044142Y-21853194D01*
X27042110Y-21847606D01*
X27039468Y-21842222D01*
X27036369Y-21837091D01*
X27032762Y-21832316D01*
X27028698Y-21827947D01*
X27024228Y-21823984D01*
X27019351Y-21820479D01*
X27014170Y-21817482D01*
X27008734Y-21815044D01*
X27003044Y-21813113D01*
X26997202Y-21811792D01*
X26991310Y-21811081D01*
G37*
G36*
X27850287Y-21810929D02*
G01*
X27844343Y-21811386D01*
X27838450Y-21812402D01*
X27832710Y-21814028D01*
X27827122Y-21816212D01*
X27821788Y-21818955D01*
X27816759Y-21822156D01*
X27812085Y-21825915D01*
X27807818Y-21830080D01*
X27803957Y-21834652D01*
X27800604Y-21839631D01*
X27797760Y-21844863D01*
X27795423Y-21850400D01*
X27793645Y-21856090D01*
X27792476Y-21861932D01*
X27791867Y-21867926D01*
X27791816Y-21900896D01*
X27792070Y-21906890D01*
X27792984Y-21912783D01*
X27794458Y-21918574D01*
X27796489Y-21924213D01*
X27799131Y-21929598D01*
X27802230Y-21934678D01*
X27805837Y-21939453D01*
X27809901Y-21943822D01*
X27814371Y-21947784D01*
X27819248Y-21951289D01*
X27824430Y-21954286D01*
X27829865Y-21956725D01*
X27835555Y-21958655D01*
X27841397Y-21959976D01*
X27847289Y-21960738D01*
X27853284Y-21960890D01*
X27859278Y-21960433D01*
X27865171Y-21959417D01*
X27870912Y-21957792D01*
X27876449Y-21955607D01*
X27881783Y-21952864D01*
X27886812Y-21949613D01*
X27891486Y-21945904D01*
X27895803Y-21941688D01*
X27899614Y-21937116D01*
X27903017Y-21932188D01*
X27905862Y-21926905D01*
X27908199Y-21921419D01*
X27909926Y-21915678D01*
X27911145Y-21909836D01*
X27911704Y-21903893D01*
X27911806Y-21870873D01*
X27911501Y-21864929D01*
X27910586Y-21858986D01*
X27909113Y-21853194D01*
X27907081Y-21847606D01*
X27904490Y-21842222D01*
X27901392Y-21837091D01*
X27897785Y-21832316D01*
X27893670Y-21827947D01*
X27889200Y-21823984D01*
X27884374Y-21820479D01*
X27879192Y-21817482D01*
X27873706Y-21815044D01*
X27868067Y-21813113D01*
X27862225Y-21811792D01*
X27856281Y-21811081D01*
G37*
G36*
X4605680Y-21822714D02*
G01*
X4602530Y-21823121D01*
X4599533Y-21824188D01*
X4595622Y-21826931D01*
X4593183Y-21830080D01*
X4592421Y-21831503D01*
X4591608Y-21833738D01*
X4591100Y-21836888D01*
X4591202Y-21939300D01*
X4592116Y-21943161D01*
X4593590Y-21946006D01*
X4595063Y-21947886D01*
X4597450Y-21949968D01*
X4598822Y-21950832D01*
X4601768Y-21952051D01*
X4604918Y-21952661D01*
X4608068Y-21952559D01*
X4610404Y-21952051D01*
X4613351Y-21950832D01*
X4615383Y-21949511D01*
X4618126Y-21946666D01*
X4619752Y-21943872D01*
X4620361Y-21942399D01*
X4620920Y-21940062D01*
X4621123Y-21937675D01*
X4621072Y-21836888D01*
X4620564Y-21833738D01*
X4619040Y-21830080D01*
X4617669Y-21828150D01*
X4614722Y-21825407D01*
X4612640Y-21824188D01*
X4609642Y-21823121D01*
G37*
G36*
X4355693Y-21822714D02*
G01*
X4352544Y-21823121D01*
X4349546Y-21824188D01*
X4347514Y-21825407D01*
X4345635Y-21826931D01*
X4343196Y-21830080D01*
X4342434Y-21831503D01*
X4341622Y-21833738D01*
X4341114Y-21836888D01*
X4341215Y-21939300D01*
X4342130Y-21943161D01*
X4343603Y-21946006D01*
X4345076Y-21947886D01*
X4348175Y-21950426D01*
X4350258Y-21951543D01*
X4354118Y-21952559D01*
X4357319Y-21952661D01*
X4360468Y-21952051D01*
X4361942Y-21951543D01*
X4364075Y-21950426D01*
X4366006Y-21949003D01*
X4367682Y-21947276D01*
X4369409Y-21944634D01*
X4370781Y-21940875D01*
X4371035Y-21939300D01*
X4371035Y-21836126D01*
X4370374Y-21832976D01*
X4369765Y-21831503D01*
X4368139Y-21828760D01*
X4366564Y-21826931D01*
X4364075Y-21825000D01*
X4360468Y-21823324D01*
X4357319Y-21822765D01*
G37*
G36*
X4455718Y-21822714D02*
G01*
X4452569Y-21823121D01*
X4449572Y-21824188D01*
X4447489Y-21825407D01*
X4444542Y-21828150D01*
X4443171Y-21830080D01*
X4441647Y-21833738D01*
X4441139Y-21836888D01*
X4441088Y-21937675D01*
X4441291Y-21940062D01*
X4441850Y-21942399D01*
X4443171Y-21945295D01*
X4445101Y-21947886D01*
X4446828Y-21949511D01*
X4448860Y-21950832D01*
X4452569Y-21952254D01*
X4455718Y-21952712D01*
X4458868Y-21952458D01*
X4460443Y-21952051D01*
X4463389Y-21950832D01*
X4465980Y-21949003D01*
X4467148Y-21947886D01*
X4469434Y-21944634D01*
X4470095Y-21943161D01*
X4471009Y-21939300D01*
X4471111Y-21836888D01*
X4470603Y-21833738D01*
X4469790Y-21831503D01*
X4468164Y-21828760D01*
X4466590Y-21826931D01*
X4462678Y-21824188D01*
X4459681Y-21823121D01*
G37*
G36*
X4555693Y-21822714D02*
G01*
X4552543Y-21823121D01*
X4549546Y-21824188D01*
X4545634Y-21826931D01*
X4543196Y-21830080D01*
X4542434Y-21831503D01*
X4541621Y-21833738D01*
X4541113Y-21836888D01*
X4541215Y-21939300D01*
X4542129Y-21943161D01*
X4543602Y-21946006D01*
X4545076Y-21947886D01*
X4547463Y-21949968D01*
X4548835Y-21950832D01*
X4551781Y-21952051D01*
X4554931Y-21952661D01*
X4558080Y-21952559D01*
X4561179Y-21951797D01*
X4563364Y-21950832D01*
X4565396Y-21949511D01*
X4568139Y-21946666D01*
X4569764Y-21943872D01*
X4570374Y-21942399D01*
X4570933Y-21940062D01*
X4571136Y-21937675D01*
X4571085Y-21836888D01*
X4570577Y-21833738D01*
X4569053Y-21830080D01*
X4567682Y-21828150D01*
X4564735Y-21825407D01*
X4562652Y-21824188D01*
X4559655Y-21823121D01*
G37*
G36*
X4255719Y-21822714D02*
G01*
X4252569Y-21823121D01*
X4249572Y-21824188D01*
X4247489Y-21825407D01*
X4244543Y-21828150D01*
X4243171Y-21830080D01*
X4241647Y-21833738D01*
X4241139Y-21836888D01*
X4241088Y-21937675D01*
X4241292Y-21940062D01*
X4241850Y-21942399D01*
X4243171Y-21945295D01*
X4245102Y-21947886D01*
X4246829Y-21949511D01*
X4248861Y-21950832D01*
X4251807Y-21952051D01*
X4255719Y-21952712D01*
X4258868Y-21952458D01*
X4260443Y-21952051D01*
X4263390Y-21950832D01*
X4265980Y-21949003D01*
X4267149Y-21947886D01*
X4269435Y-21944634D01*
X4270095Y-21943161D01*
X4271010Y-21939300D01*
X4271111Y-21836888D01*
X4270603Y-21833738D01*
X4269790Y-21831503D01*
X4268165Y-21828760D01*
X4266590Y-21826931D01*
X4262678Y-21824188D01*
X4259681Y-21823121D01*
G37*
G36*
X4405680Y-21822714D02*
G01*
X4402531Y-21823121D01*
X4399534Y-21824188D01*
X4395622Y-21826931D01*
X4393184Y-21830080D01*
X4392422Y-21831503D01*
X4391609Y-21833738D01*
X4391101Y-21836888D01*
X4391202Y-21939300D01*
X4392117Y-21943161D01*
X4393590Y-21946006D01*
X4395063Y-21947886D01*
X4397451Y-21949968D01*
X4398822Y-21950832D01*
X4401769Y-21952051D01*
X4404918Y-21952661D01*
X4408068Y-21952559D01*
X4411167Y-21951797D01*
X4413351Y-21950832D01*
X4415383Y-21949511D01*
X4418126Y-21946666D01*
X4419752Y-21943872D01*
X4420362Y-21942399D01*
X4420920Y-21940062D01*
X4421124Y-21937675D01*
X4421073Y-21836888D01*
X4420565Y-21833738D01*
X4419041Y-21830080D01*
X4417669Y-21828150D01*
X4414723Y-21825407D01*
X4412640Y-21824188D01*
X4409643Y-21823121D01*
G37*
G36*
X4505706Y-21822714D02*
G01*
X4502556Y-21823121D01*
X4499559Y-21824188D01*
X4497476Y-21825407D01*
X4494530Y-21828150D01*
X4493158Y-21830080D01*
X4491634Y-21833738D01*
X4491126Y-21836888D01*
X4491075Y-21937675D01*
X4491278Y-21940062D01*
X4491837Y-21942399D01*
X4493158Y-21945295D01*
X4495088Y-21947886D01*
X4496816Y-21949511D01*
X4498848Y-21950832D01*
X4502556Y-21952254D01*
X4505706Y-21952712D01*
X4508855Y-21952458D01*
X4510430Y-21952051D01*
X4513376Y-21950832D01*
X4516577Y-21948444D01*
X4518152Y-21946666D01*
X4519777Y-21943872D01*
X4520590Y-21941637D01*
X4521098Y-21938488D01*
X4520996Y-21836126D01*
X4520082Y-21832214D01*
X4518609Y-21829420D01*
X4517136Y-21827540D01*
X4515358Y-21825915D01*
X4511954Y-21823883D01*
X4508855Y-21822968D01*
G37*
G36*
X4105706Y-21822714D02*
G01*
X4102557Y-21823121D01*
X4099560Y-21824188D01*
X4097477Y-21825407D01*
X4094530Y-21828150D01*
X4093159Y-21830080D01*
X4091635Y-21833738D01*
X4091127Y-21836888D01*
X4091076Y-21937675D01*
X4091279Y-21940062D01*
X4091838Y-21942399D01*
X4093159Y-21945295D01*
X4095089Y-21947886D01*
X4096816Y-21949511D01*
X4098848Y-21950832D01*
X4101795Y-21952051D01*
X4105706Y-21952712D01*
X4108856Y-21952458D01*
X4110431Y-21952051D01*
X4113377Y-21950832D01*
X4115968Y-21949003D01*
X4117136Y-21947886D01*
X4119422Y-21944634D01*
X4120083Y-21943161D01*
X4120997Y-21939300D01*
X4121099Y-21836888D01*
X4120591Y-21833738D01*
X4119778Y-21831503D01*
X4118152Y-21828760D01*
X4116578Y-21826931D01*
X4112666Y-21824188D01*
X4109669Y-21823121D01*
G37*
G36*
X4205681Y-21822714D02*
G01*
X4202531Y-21823121D01*
X4199534Y-21824188D01*
X4197502Y-21825407D01*
X4195622Y-21826931D01*
X4193184Y-21830080D01*
X4192422Y-21831503D01*
X4191609Y-21833738D01*
X4191101Y-21836888D01*
X4191203Y-21939300D01*
X4192117Y-21943161D01*
X4193590Y-21946006D01*
X4195064Y-21947886D01*
X4198162Y-21950426D01*
X4200245Y-21951543D01*
X4204106Y-21952559D01*
X4207306Y-21952661D01*
X4210456Y-21952051D01*
X4211929Y-21951543D01*
X4214063Y-21950426D01*
X4215993Y-21949003D01*
X4217670Y-21947276D01*
X4219397Y-21944634D01*
X4220768Y-21940875D01*
X4221022Y-21939300D01*
X4221022Y-21836126D01*
X4220362Y-21832976D01*
X4219752Y-21831503D01*
X4218127Y-21828760D01*
X4216552Y-21826931D01*
X4214063Y-21825000D01*
X4210456Y-21823324D01*
X4207306Y-21822765D01*
G37*
G36*
X4305706Y-21822714D02*
G01*
X4302556Y-21823121D01*
X4299559Y-21824188D01*
X4297476Y-21825407D01*
X4294530Y-21828150D01*
X4293158Y-21830080D01*
X4291634Y-21833738D01*
X4291126Y-21836888D01*
X4291076Y-21937675D01*
X4291279Y-21940062D01*
X4291838Y-21942399D01*
X4293158Y-21945295D01*
X4295089Y-21947886D01*
X4296816Y-21949511D01*
X4298848Y-21950832D01*
X4302556Y-21952254D01*
X4305706Y-21952712D01*
X4308856Y-21952458D01*
X4310430Y-21952051D01*
X4313377Y-21950832D01*
X4315968Y-21949003D01*
X4317136Y-21947886D01*
X4319422Y-21944634D01*
X4320082Y-21943161D01*
X4320997Y-21939300D01*
X4321098Y-21836888D01*
X4320590Y-21833738D01*
X4319778Y-21831503D01*
X4318152Y-21828760D01*
X4316577Y-21826931D01*
X4312666Y-21824188D01*
X4309668Y-21823121D01*
G37*
G36*
X4155694Y-21822714D02*
G01*
X4152544Y-21823121D01*
X4149547Y-21824188D01*
X4147515Y-21825407D01*
X4145635Y-21826931D01*
X4143197Y-21830080D01*
X4142435Y-21831503D01*
X4141622Y-21833738D01*
X4141114Y-21836888D01*
X4141215Y-21939300D01*
X4142130Y-21943161D01*
X4143603Y-21946006D01*
X4145076Y-21947886D01*
X4148175Y-21950426D01*
X4150258Y-21951543D01*
X4154119Y-21952559D01*
X4157319Y-21952661D01*
X4158894Y-21952458D01*
X4161942Y-21951543D01*
X4164076Y-21950426D01*
X4166006Y-21949003D01*
X4167682Y-21947276D01*
X4169410Y-21944634D01*
X4170781Y-21940875D01*
X4171035Y-21939300D01*
X4171035Y-21836126D01*
X4170375Y-21832976D01*
X4169765Y-21831503D01*
X4168140Y-21828760D01*
X4166565Y-21826931D01*
X4164076Y-21825000D01*
X4160418Y-21823324D01*
X4157319Y-21822765D01*
G37*
G36*
X4656074Y-21972676D02*
G01*
X4652924Y-21973032D01*
X4649165Y-21974403D01*
X4646523Y-21976130D01*
X4644796Y-21977807D01*
X4643374Y-21979737D01*
X4642256Y-21981871D01*
X4641342Y-21984919D01*
X4641088Y-21988119D01*
X4641545Y-21991269D01*
X4642256Y-21993555D01*
X4643374Y-21995638D01*
X4645914Y-21998736D01*
X4649165Y-22001022D01*
X4650638Y-22001683D01*
X4654499Y-22002597D01*
X4756912Y-22002699D01*
X4760061Y-22002191D01*
X4762296Y-22001378D01*
X4765040Y-21999752D01*
X4766868Y-21998178D01*
X4768392Y-21996298D01*
X4769612Y-21994266D01*
X4770678Y-21991269D01*
X4771085Y-21988119D01*
X4770831Y-21984919D01*
X4769916Y-21981871D01*
X4767884Y-21978416D01*
X4766868Y-21977248D01*
X4765040Y-21975673D01*
X4762296Y-21974048D01*
X4759248Y-21973032D01*
X4756099Y-21972676D01*
G37*
G36*
X3956100Y-21972676D02*
G01*
X3952951Y-21973032D01*
X3949903Y-21974048D01*
X3947160Y-21975673D01*
X3945331Y-21977248D01*
X3943400Y-21979737D01*
X3941724Y-21983395D01*
X3941165Y-21986494D01*
X3941216Y-21989694D01*
X3941978Y-21992793D01*
X3942587Y-21994266D01*
X3943807Y-21996298D01*
X3945331Y-21998178D01*
X3948480Y-22000616D01*
X3949903Y-22001378D01*
X3952138Y-22002191D01*
X3955287Y-22002699D01*
X4057700Y-22002597D01*
X4061561Y-22001683D01*
X4064406Y-22000210D01*
X4066286Y-21998736D01*
X4068826Y-21995638D01*
X4069943Y-21993555D01*
X4070959Y-21989694D01*
X4071061Y-21986494D01*
X4070858Y-21984919D01*
X4069943Y-21981871D01*
X4068826Y-21979737D01*
X4067403Y-21977807D01*
X4065676Y-21976130D01*
X4063034Y-21974403D01*
X4060799Y-21973438D01*
X4058462Y-21972879D01*
X4056887Y-21972727D01*
G37*
G36*
X4148074Y-22029724D02*
G01*
X4148074Y-22445726D01*
X4564126Y-22445726D01*
X4564126Y-22029724D01*
G37*
G36*
X4655312Y-22022714D02*
G01*
X4652162Y-22023222D01*
X4649927Y-22024035D01*
X4647133Y-22025660D01*
X4644288Y-22028454D01*
X4642256Y-22031858D01*
X4641240Y-22035719D01*
X4641138Y-22038919D01*
X4641342Y-22040494D01*
X4642256Y-22043542D01*
X4643374Y-22045676D01*
X4644796Y-22047606D01*
X4646523Y-22049282D01*
X4649165Y-22051010D01*
X4652924Y-22052381D01*
X4656074Y-22052737D01*
X4756912Y-22052686D01*
X4760061Y-22052178D01*
X4763719Y-22050654D01*
X4765649Y-22049282D01*
X4768392Y-22046336D01*
X4769612Y-22044253D01*
X4770678Y-22041256D01*
X4771085Y-22038106D01*
X4770831Y-22034957D01*
X4769916Y-22031858D01*
X4768392Y-22029064D01*
X4766259Y-22026676D01*
X4763008Y-22024390D01*
X4761585Y-22023730D01*
X4757674Y-22022816D01*
G37*
G36*
X3955287Y-22022714D02*
G01*
X3952138Y-22023222D01*
X3949903Y-22024035D01*
X3947160Y-22025660D01*
X3945331Y-22027235D01*
X3942587Y-22031147D01*
X3941521Y-22034144D01*
X3941114Y-22037294D01*
X3941368Y-22040494D01*
X3942283Y-22043542D01*
X3944315Y-22046996D01*
X3945331Y-22048165D01*
X3947160Y-22049740D01*
X3949903Y-22051365D01*
X3952951Y-22052381D01*
X3956100Y-22052737D01*
X4056887Y-22052686D01*
X4058462Y-22052534D01*
X4060799Y-22051975D01*
X4064406Y-22050197D01*
X4065676Y-22049282D01*
X4067403Y-22047606D01*
X4068826Y-22045676D01*
X4069943Y-22043542D01*
X4070858Y-22040494D01*
X4071112Y-22037294D01*
X4070654Y-22034144D01*
X4069943Y-22031858D01*
X4067911Y-22028454D01*
X4065066Y-22025660D01*
X4062323Y-22024035D01*
X4060037Y-22023222D01*
X4056887Y-22022714D01*
G37*
G36*
X4655312Y-22072701D02*
G01*
X4652162Y-22073209D01*
X4649927Y-22074022D01*
X4647133Y-22075648D01*
X4644288Y-22078442D01*
X4642967Y-22080423D01*
X4641748Y-22083369D01*
X4641138Y-22086519D01*
X4641240Y-22089668D01*
X4641748Y-22092005D01*
X4642967Y-22094952D01*
X4644288Y-22096984D01*
X4647133Y-22099727D01*
X4649927Y-22101352D01*
X4651400Y-22101962D01*
X4653737Y-22102521D01*
X4655312Y-22102673D01*
X4757674Y-22102622D01*
X4760823Y-22101962D01*
X4762296Y-22101352D01*
X4765040Y-22099727D01*
X4766868Y-22098152D01*
X4768799Y-22095663D01*
X4770475Y-22092005D01*
X4771034Y-22088906D01*
X4770983Y-22085706D01*
X4770221Y-22082607D01*
X4769612Y-22081134D01*
X4768392Y-22079102D01*
X4766868Y-22077222D01*
X4763719Y-22074784D01*
X4762296Y-22074022D01*
X4760061Y-22073209D01*
X4756912Y-22072701D01*
G37*
G36*
X3955287Y-22072701D02*
G01*
X3952138Y-22073209D01*
X3949903Y-22074022D01*
X3947160Y-22075648D01*
X3945331Y-22077222D01*
X3943807Y-22079102D01*
X3942587Y-22081134D01*
X3941521Y-22084131D01*
X3941114Y-22087281D01*
X3941368Y-22090481D01*
X3942283Y-22093529D01*
X3944315Y-22096984D01*
X3945331Y-22098152D01*
X3947160Y-22099727D01*
X3949903Y-22101352D01*
X3952951Y-22102368D01*
X3956100Y-22102724D01*
X4056887Y-22102673D01*
X4058462Y-22102521D01*
X4060799Y-22101962D01*
X4064406Y-22100184D01*
X4065676Y-22099270D01*
X4067403Y-22097593D01*
X4068826Y-22095663D01*
X4069943Y-22093529D01*
X4070858Y-22090481D01*
X4071112Y-22087281D01*
X4070654Y-22084131D01*
X4069943Y-22081845D01*
X4068826Y-22079762D01*
X4066286Y-22076664D01*
X4063034Y-22074378D01*
X4061561Y-22073717D01*
X4057700Y-22072803D01*
G37*
G36*
X4656074Y-22122688D02*
G01*
X4652924Y-22123044D01*
X4649165Y-22124416D01*
X4646523Y-22126143D01*
X4644796Y-22127819D01*
X4643374Y-22129750D01*
X4642256Y-22131883D01*
X4641342Y-22134931D01*
X4641088Y-22138132D01*
X4641545Y-22141281D01*
X4642256Y-22143567D01*
X4643374Y-22145650D01*
X4645914Y-22148749D01*
X4649165Y-22151035D01*
X4650638Y-22151695D01*
X4654499Y-22152610D01*
X4756912Y-22152711D01*
X4760061Y-22152203D01*
X4762296Y-22151390D01*
X4765040Y-22149765D01*
X4766868Y-22148190D01*
X4768392Y-22146310D01*
X4769612Y-22144278D01*
X4770678Y-22141281D01*
X4771085Y-22138132D01*
X4770831Y-22134931D01*
X4769916Y-22131883D01*
X4767884Y-22128429D01*
X4766868Y-22127260D01*
X4765040Y-22125686D01*
X4762296Y-22124060D01*
X4759248Y-22123044D01*
X4756099Y-22122688D01*
G37*
G36*
X3956100Y-22122688D02*
G01*
X3952951Y-22123044D01*
X3949903Y-22124060D01*
X3947160Y-22125686D01*
X3945331Y-22127260D01*
X3943400Y-22129750D01*
X3941724Y-22133356D01*
X3941165Y-22136506D01*
X3941216Y-22139706D01*
X3941978Y-22142805D01*
X3942587Y-22144278D01*
X3943807Y-22146310D01*
X3945331Y-22148190D01*
X3948480Y-22150628D01*
X3949903Y-22151390D01*
X3952138Y-22152203D01*
X3955287Y-22152711D01*
X4057700Y-22152610D01*
X4061561Y-22151695D01*
X4064406Y-22150222D01*
X4066286Y-22148749D01*
X4068826Y-22145650D01*
X4069943Y-22143567D01*
X4070959Y-22139706D01*
X4071061Y-22136506D01*
X4070451Y-22133356D01*
X4069943Y-22131883D01*
X4068826Y-22129750D01*
X4067403Y-22127819D01*
X4065676Y-22126143D01*
X4063034Y-22124416D01*
X4060799Y-22123450D01*
X4058462Y-22122892D01*
X4056887Y-22122739D01*
G37*
G36*
X4656074Y-22172676D02*
G01*
X4652924Y-22173031D01*
X4649165Y-22174403D01*
X4646523Y-22176130D01*
X4644796Y-22177806D01*
X4643374Y-22179737D01*
X4642256Y-22181870D01*
X4641342Y-22184918D01*
X4641088Y-22188119D01*
X4641545Y-22191268D01*
X4642256Y-22193554D01*
X4644288Y-22196958D01*
X4647133Y-22199752D01*
X4649927Y-22201378D01*
X4652162Y-22202190D01*
X4655312Y-22202698D01*
X4757674Y-22202597D01*
X4761585Y-22201682D01*
X4764379Y-22200209D01*
X4766259Y-22198736D01*
X4768392Y-22196348D01*
X4769916Y-22193554D01*
X4770831Y-22190456D01*
X4771085Y-22187306D01*
X4770678Y-22184156D01*
X4769612Y-22181159D01*
X4768392Y-22179076D01*
X4765649Y-22176130D01*
X4763719Y-22174758D01*
X4760061Y-22173234D01*
X4756912Y-22172726D01*
G37*
G36*
X3956100Y-22172676D02*
G01*
X3952951Y-22173031D01*
X3949903Y-22174047D01*
X3947160Y-22175673D01*
X3945331Y-22177248D01*
X3943400Y-22179737D01*
X3941724Y-22183344D01*
X3941165Y-22186493D01*
X3941216Y-22189694D01*
X3941978Y-22192792D01*
X3943400Y-22195637D01*
X3945331Y-22198177D01*
X3948480Y-22200616D01*
X3949903Y-22201378D01*
X3952138Y-22202190D01*
X3955287Y-22202698D01*
X4057700Y-22202597D01*
X4061561Y-22201682D01*
X4064406Y-22200209D01*
X4066286Y-22198736D01*
X4068368Y-22196348D01*
X4069232Y-22194977D01*
X4070451Y-22192030D01*
X4071061Y-22188881D01*
X4070959Y-22185731D01*
X4070197Y-22182632D01*
X4069232Y-22180448D01*
X4067911Y-22178416D01*
X4065066Y-22175673D01*
X4062323Y-22174047D01*
X4059275Y-22173031D01*
X4056126Y-22172676D01*
G37*
G36*
X4655312Y-22222714D02*
G01*
X4652162Y-22223222D01*
X4649927Y-22224034D01*
X4647133Y-22225660D01*
X4644288Y-22228454D01*
X4642256Y-22231858D01*
X4641240Y-22235718D01*
X4641138Y-22238919D01*
X4641342Y-22240494D01*
X4642256Y-22243542D01*
X4643374Y-22245675D01*
X4644796Y-22247606D01*
X4646523Y-22249282D01*
X4649165Y-22251009D01*
X4652924Y-22252381D01*
X4656074Y-22252736D01*
X4756912Y-22252686D01*
X4760061Y-22252178D01*
X4763719Y-22250654D01*
X4765649Y-22249282D01*
X4768392Y-22246336D01*
X4769612Y-22244253D01*
X4770678Y-22241256D01*
X4771085Y-22238106D01*
X4770831Y-22234956D01*
X4769916Y-22231858D01*
X4768392Y-22229064D01*
X4766259Y-22226676D01*
X4763008Y-22224390D01*
X4761585Y-22223730D01*
X4757674Y-22222815D01*
G37*
G36*
X3955287Y-22222714D02*
G01*
X3952138Y-22223222D01*
X3949903Y-22224034D01*
X3947160Y-22225660D01*
X3945331Y-22227235D01*
X3942587Y-22231146D01*
X3941521Y-22234144D01*
X3941114Y-22237293D01*
X3941368Y-22240494D01*
X3942283Y-22243542D01*
X3944315Y-22246996D01*
X3945331Y-22248164D01*
X3947160Y-22249739D01*
X3949903Y-22251365D01*
X3952951Y-22252381D01*
X3956100Y-22252736D01*
X4056887Y-22252686D01*
X4058462Y-22252533D01*
X4060799Y-22251974D01*
X4064406Y-22250196D01*
X4065676Y-22249282D01*
X4067403Y-22247606D01*
X4068826Y-22245675D01*
X4069943Y-22243542D01*
X4070858Y-22240494D01*
X4071112Y-22237293D01*
X4070654Y-22234144D01*
X4069943Y-22231858D01*
X4067911Y-22228454D01*
X4065066Y-22225660D01*
X4062323Y-22224034D01*
X4060037Y-22223222D01*
X4056887Y-22222714D01*
G37*
G36*
X4655312Y-22272701D02*
G01*
X4652162Y-22273209D01*
X4649927Y-22274022D01*
X4647133Y-22275647D01*
X4644288Y-22278441D01*
X4642256Y-22281845D01*
X4641240Y-22285706D01*
X4641138Y-22288906D01*
X4641748Y-22292056D01*
X4642256Y-22293529D01*
X4643374Y-22295662D01*
X4644796Y-22297593D01*
X4646523Y-22299269D01*
X4649165Y-22300996D01*
X4652924Y-22302368D01*
X4656074Y-22302724D01*
X4756912Y-22302673D01*
X4760061Y-22302165D01*
X4763719Y-22300641D01*
X4765649Y-22299269D01*
X4768392Y-22296323D01*
X4769612Y-22294240D01*
X4770678Y-22291243D01*
X4771085Y-22288093D01*
X4770831Y-22284944D01*
X4769916Y-22281845D01*
X4768392Y-22279051D01*
X4766259Y-22276663D01*
X4763008Y-22274377D01*
X4761585Y-22273717D01*
X4757674Y-22272802D01*
G37*
G36*
X3955287Y-22272701D02*
G01*
X3952138Y-22273209D01*
X3949903Y-22274022D01*
X3947160Y-22275647D01*
X3945331Y-22277222D01*
X3942587Y-22281134D01*
X3941521Y-22284131D01*
X3941114Y-22287280D01*
X3941368Y-22290481D01*
X3942283Y-22293529D01*
X3944315Y-22296983D01*
X3945331Y-22298152D01*
X3947160Y-22299726D01*
X3949903Y-22301352D01*
X3952951Y-22302368D01*
X3956100Y-22302724D01*
X4056887Y-22302673D01*
X4058462Y-22302520D01*
X4060799Y-22301962D01*
X4064406Y-22300184D01*
X4065676Y-22299269D01*
X4067403Y-22297593D01*
X4068826Y-22295662D01*
X4069943Y-22293529D01*
X4070858Y-22290481D01*
X4071112Y-22287280D01*
X4070654Y-22284131D01*
X4069943Y-22281845D01*
X4067911Y-22278441D01*
X4065066Y-22275647D01*
X4062323Y-22274022D01*
X4060037Y-22273209D01*
X4056887Y-22272701D01*
G37*
G36*
X4656074Y-22322688D02*
G01*
X4652924Y-22323044D01*
X4649165Y-22324415D01*
X4646523Y-22326142D01*
X4644796Y-22327819D01*
X4643374Y-22329749D01*
X4642256Y-22331883D01*
X4641342Y-22334931D01*
X4641088Y-22338131D01*
X4641545Y-22341281D01*
X4642256Y-22343567D01*
X4643374Y-22345650D01*
X4645914Y-22348748D01*
X4649165Y-22351034D01*
X4650638Y-22351695D01*
X4654499Y-22352609D01*
X4756912Y-22352711D01*
X4760061Y-22352203D01*
X4762296Y-22351390D01*
X4765040Y-22349764D01*
X4766868Y-22348190D01*
X4768392Y-22346310D01*
X4769612Y-22344278D01*
X4770678Y-22341281D01*
X4771085Y-22338131D01*
X4770831Y-22334931D01*
X4769916Y-22331883D01*
X4767884Y-22328428D01*
X4766868Y-22327260D01*
X4765040Y-22325685D01*
X4762296Y-22324060D01*
X4759248Y-22323044D01*
X4756099Y-22322688D01*
G37*
G36*
X3956100Y-22322688D02*
G01*
X3952951Y-22323044D01*
X3949903Y-22324060D01*
X3947160Y-22325685D01*
X3945331Y-22327260D01*
X3943400Y-22329749D01*
X3941724Y-22333356D01*
X3941165Y-22336506D01*
X3941216Y-22339706D01*
X3941978Y-22342805D01*
X3942587Y-22344278D01*
X3943807Y-22346310D01*
X3945331Y-22348190D01*
X3948480Y-22350628D01*
X3949903Y-22351390D01*
X3952138Y-22352203D01*
X3955287Y-22352711D01*
X4057700Y-22352609D01*
X4061561Y-22351695D01*
X4064406Y-22350222D01*
X4066286Y-22348748D01*
X4068826Y-22345650D01*
X4069943Y-22343567D01*
X4070959Y-22339706D01*
X4071061Y-22336506D01*
X4070451Y-22333356D01*
X4069943Y-22331883D01*
X4068826Y-22329749D01*
X4067403Y-22327819D01*
X4065676Y-22326142D01*
X4063034Y-22324415D01*
X4060799Y-22323450D01*
X4058462Y-22322891D01*
X4056887Y-22322739D01*
G37*
G36*
X4656074Y-22372675D02*
G01*
X4652924Y-22373031D01*
X4649165Y-22374402D01*
X4646523Y-22376130D01*
X4644796Y-22377806D01*
X4643374Y-22379736D01*
X4642256Y-22381870D01*
X4641342Y-22384918D01*
X4641088Y-22388118D01*
X4641545Y-22391268D01*
X4642256Y-22393554D01*
X4643374Y-22395637D01*
X4645914Y-22398736D01*
X4649165Y-22401022D01*
X4650638Y-22401682D01*
X4654499Y-22402596D01*
X4756912Y-22402698D01*
X4760061Y-22402190D01*
X4762296Y-22401377D01*
X4765040Y-22399752D01*
X4766868Y-22398177D01*
X4768392Y-22396297D01*
X4769612Y-22394265D01*
X4770678Y-22391268D01*
X4771085Y-22388118D01*
X4770831Y-22384918D01*
X4769916Y-22381870D01*
X4767884Y-22378416D01*
X4766868Y-22377247D01*
X4765040Y-22375672D01*
X4762296Y-22374047D01*
X4759248Y-22373031D01*
X4756099Y-22372675D01*
G37*
G36*
X3956100Y-22372675D02*
G01*
X3952951Y-22373031D01*
X3949903Y-22374047D01*
X3947160Y-22375672D01*
X3945331Y-22377247D01*
X3943400Y-22379736D01*
X3941724Y-22383343D01*
X3941165Y-22386493D01*
X3941216Y-22389693D01*
X3941978Y-22392792D01*
X3942587Y-22394265D01*
X3943807Y-22396297D01*
X3945331Y-22398177D01*
X3948480Y-22400615D01*
X3949903Y-22401377D01*
X3952138Y-22402190D01*
X3955287Y-22402698D01*
X4057700Y-22402596D01*
X4061561Y-22401682D01*
X4064406Y-22400209D01*
X4066286Y-22398736D01*
X4068826Y-22395637D01*
X4069943Y-22393554D01*
X4070959Y-22389693D01*
X4071061Y-22386493D01*
X4070451Y-22383343D01*
X4069943Y-22381870D01*
X4068826Y-22379736D01*
X4067403Y-22377806D01*
X4065676Y-22376130D01*
X4063034Y-22374402D01*
X4060799Y-22373437D01*
X4058462Y-22372878D01*
X4056887Y-22372726D01*
G37*
G36*
X4655312Y-22422713D02*
G01*
X4652162Y-22423221D01*
X4649927Y-22424034D01*
X4647133Y-22425660D01*
X4644288Y-22428454D01*
X4642256Y-22431857D01*
X4641240Y-22435718D01*
X4641138Y-22438918D01*
X4641748Y-22442068D01*
X4642256Y-22443541D01*
X4643374Y-22445675D01*
X4644796Y-22447605D01*
X4646523Y-22449282D01*
X4649165Y-22451009D01*
X4652924Y-22452380D01*
X4656074Y-22452736D01*
X4756912Y-22452685D01*
X4760061Y-22452177D01*
X4763719Y-22450653D01*
X4765649Y-22449282D01*
X4768392Y-22446335D01*
X4769612Y-22444252D01*
X4770678Y-22441255D01*
X4771085Y-22438106D01*
X4770831Y-22434956D01*
X4769916Y-22431857D01*
X4768392Y-22429063D01*
X4766259Y-22426676D01*
X4763008Y-22424390D01*
X4761585Y-22423729D01*
X4757674Y-22422815D01*
G37*
G36*
X3955287Y-22422713D02*
G01*
X3952138Y-22423221D01*
X3949903Y-22424034D01*
X3947160Y-22425660D01*
X3945331Y-22427234D01*
X3942587Y-22431146D01*
X3941521Y-22434143D01*
X3941114Y-22437293D01*
X3941368Y-22440493D01*
X3942283Y-22443541D01*
X3944315Y-22446996D01*
X3945331Y-22448164D01*
X3947160Y-22449739D01*
X3949903Y-22451364D01*
X3952951Y-22452380D01*
X3956100Y-22452736D01*
X4056887Y-22452685D01*
X4058462Y-22452533D01*
X4060799Y-22451974D01*
X4064406Y-22450196D01*
X4065676Y-22449282D01*
X4067403Y-22447605D01*
X4068826Y-22445675D01*
X4069943Y-22443541D01*
X4070858Y-22440493D01*
X4071112Y-22437293D01*
X4070654Y-22434143D01*
X4069943Y-22431857D01*
X4067911Y-22428454D01*
X4065066Y-22425660D01*
X4062323Y-22424034D01*
X4060037Y-22423221D01*
X4056887Y-22422713D01*
G37*
G36*
X4655312Y-22472700D02*
G01*
X4652162Y-22473208D01*
X4649927Y-22474021D01*
X4647133Y-22475647D01*
X4644288Y-22478441D01*
X4642256Y-22481844D01*
X4641240Y-22485705D01*
X4641138Y-22488906D01*
X4641342Y-22490480D01*
X4642256Y-22493528D01*
X4643374Y-22495662D01*
X4644796Y-22497592D01*
X4646523Y-22499269D01*
X4649165Y-22500996D01*
X4652924Y-22502368D01*
X4656074Y-22502723D01*
X4756912Y-22502672D01*
X4760061Y-22502164D01*
X4763719Y-22500640D01*
X4765649Y-22499269D01*
X4768392Y-22496322D01*
X4769612Y-22494240D01*
X4770678Y-22491242D01*
X4771085Y-22488093D01*
X4770831Y-22484943D01*
X4769916Y-22481844D01*
X4768392Y-22479050D01*
X4766259Y-22476663D01*
X4763008Y-22474377D01*
X4761585Y-22473716D01*
X4757674Y-22472802D01*
G37*
G36*
X3955287Y-22472700D02*
G01*
X3952138Y-22473208D01*
X3949903Y-22474021D01*
X3947160Y-22475647D01*
X3945331Y-22477222D01*
X3942587Y-22481133D01*
X3941521Y-22484130D01*
X3941114Y-22487280D01*
X3941368Y-22490480D01*
X3942283Y-22493528D01*
X3944315Y-22496983D01*
X3945331Y-22498151D01*
X3947160Y-22499726D01*
X3949903Y-22501352D01*
X3952951Y-22502368D01*
X3956100Y-22502723D01*
X4056887Y-22502672D01*
X4058462Y-22502520D01*
X4060799Y-22501961D01*
X4064406Y-22500183D01*
X4065676Y-22499269D01*
X4067403Y-22497592D01*
X4068826Y-22495662D01*
X4069943Y-22493528D01*
X4070858Y-22490480D01*
X4071112Y-22487280D01*
X4070654Y-22484130D01*
X4069943Y-22481844D01*
X4067911Y-22478441D01*
X4065066Y-22475647D01*
X4062323Y-22474021D01*
X4060037Y-22473208D01*
X4056887Y-22472700D01*
G37*
G36*
X4255719Y-22522688D02*
G01*
X4251807Y-22523348D01*
X4248861Y-22524567D01*
X4246829Y-22525888D01*
X4244086Y-22528733D01*
X4242460Y-22531476D01*
X4241444Y-22534524D01*
X4241088Y-22537674D01*
X4241139Y-22638512D01*
X4241647Y-22641661D01*
X4243171Y-22645319D01*
X4244543Y-22647249D01*
X4247489Y-22649992D01*
X4249572Y-22651212D01*
X4252569Y-22652278D01*
X4255719Y-22652685D01*
X4258868Y-22652431D01*
X4261967Y-22651516D01*
X4264761Y-22649992D01*
X4267149Y-22647859D01*
X4269435Y-22644608D01*
X4270095Y-22643185D01*
X4271010Y-22639274D01*
X4271111Y-22536912D01*
X4270603Y-22533762D01*
X4269790Y-22531476D01*
X4268165Y-22528733D01*
X4265371Y-22525888D01*
X4261967Y-22523856D01*
X4258106Y-22522840D01*
G37*
G36*
X4505706Y-22522688D02*
G01*
X4502556Y-22523145D01*
X4498848Y-22524567D01*
X4496816Y-22525888D01*
X4494072Y-22528733D01*
X4492447Y-22531476D01*
X4491431Y-22534524D01*
X4491075Y-22537674D01*
X4491126Y-22638512D01*
X4491634Y-22641661D01*
X4493158Y-22645319D01*
X4494530Y-22647249D01*
X4497476Y-22649992D01*
X4499559Y-22651212D01*
X4502556Y-22652278D01*
X4505706Y-22652685D01*
X4508855Y-22652431D01*
X4511954Y-22651516D01*
X4515358Y-22649484D01*
X4517136Y-22647859D01*
X4519422Y-22644608D01*
X4520082Y-22643185D01*
X4520996Y-22639274D01*
X4521098Y-22536912D01*
X4520590Y-22533762D01*
X4519777Y-22531476D01*
X4518152Y-22528733D01*
X4515358Y-22525888D01*
X4513376Y-22524567D01*
X4510430Y-22523348D01*
X4507280Y-22522738D01*
G37*
G36*
X4305706Y-22522688D02*
G01*
X4302556Y-22523145D01*
X4298848Y-22524567D01*
X4296816Y-22525888D01*
X4294073Y-22528733D01*
X4292447Y-22531476D01*
X4291431Y-22534524D01*
X4291076Y-22537674D01*
X4291126Y-22638512D01*
X4291634Y-22641661D01*
X4293158Y-22645319D01*
X4294530Y-22647249D01*
X4297476Y-22649992D01*
X4299559Y-22651212D01*
X4302556Y-22652278D01*
X4305706Y-22652685D01*
X4308856Y-22652431D01*
X4311954Y-22651516D01*
X4314748Y-22649992D01*
X4317136Y-22647859D01*
X4319422Y-22644608D01*
X4320082Y-22643185D01*
X4320997Y-22639274D01*
X4321098Y-22536912D01*
X4320590Y-22533762D01*
X4319778Y-22531476D01*
X4318152Y-22528733D01*
X4315358Y-22525888D01*
X4311954Y-22523856D01*
X4308094Y-22522840D01*
G37*
G36*
X4605680Y-22522688D02*
G01*
X4602530Y-22523145D01*
X4600244Y-22523856D01*
X4596841Y-22525888D01*
X4594047Y-22528733D01*
X4592421Y-22531476D01*
X4591608Y-22533762D01*
X4591100Y-22536912D01*
X4591202Y-22639274D01*
X4592116Y-22643185D01*
X4593590Y-22645979D01*
X4595063Y-22647859D01*
X4597450Y-22649992D01*
X4600244Y-22651516D01*
X4603343Y-22652431D01*
X4606493Y-22652685D01*
X4609642Y-22652278D01*
X4612640Y-22651212D01*
X4614722Y-22649992D01*
X4617669Y-22647249D01*
X4619040Y-22645319D01*
X4620564Y-22641661D01*
X4621072Y-22638512D01*
X4621022Y-22536099D01*
X4620768Y-22534524D01*
X4619752Y-22531476D01*
X4618126Y-22528733D01*
X4615383Y-22525888D01*
X4613351Y-22524567D01*
X4610404Y-22523348D01*
G37*
G36*
X4105706Y-22522688D02*
G01*
X4101795Y-22523348D01*
X4098848Y-22524567D01*
X4096816Y-22525888D01*
X4094073Y-22528733D01*
X4092448Y-22531476D01*
X4091432Y-22534524D01*
X4091076Y-22537674D01*
X4091127Y-22638512D01*
X4091635Y-22641661D01*
X4093159Y-22645319D01*
X4094530Y-22647249D01*
X4097477Y-22649992D01*
X4099560Y-22651212D01*
X4102557Y-22652278D01*
X4105706Y-22652685D01*
X4108856Y-22652431D01*
X4111955Y-22651516D01*
X4114749Y-22649992D01*
X4117136Y-22647859D01*
X4119422Y-22644608D01*
X4120083Y-22643185D01*
X4120997Y-22639274D01*
X4121099Y-22536912D01*
X4120591Y-22533762D01*
X4119778Y-22531476D01*
X4118152Y-22528733D01*
X4115358Y-22525888D01*
X4111955Y-22523856D01*
X4108094Y-22522840D01*
G37*
G36*
X4405680Y-22522688D02*
G01*
X4402531Y-22523145D01*
X4400245Y-22523856D01*
X4396841Y-22525888D01*
X4394047Y-22528733D01*
X4392422Y-22531476D01*
X4391609Y-22533762D01*
X4391101Y-22536912D01*
X4391202Y-22639274D01*
X4392117Y-22643185D01*
X4393590Y-22645979D01*
X4395063Y-22647859D01*
X4397451Y-22649992D01*
X4400245Y-22651516D01*
X4403344Y-22652431D01*
X4406493Y-22652685D01*
X4409643Y-22652278D01*
X4412640Y-22651212D01*
X4414723Y-22649992D01*
X4417669Y-22647249D01*
X4419041Y-22645319D01*
X4420565Y-22641661D01*
X4421073Y-22638512D01*
X4421022Y-22536099D01*
X4420768Y-22534524D01*
X4419752Y-22531476D01*
X4418126Y-22528733D01*
X4415383Y-22525888D01*
X4413351Y-22524567D01*
X4409643Y-22523145D01*
G37*
G36*
X4205681Y-22522688D02*
G01*
X4202531Y-22523145D01*
X4200245Y-22523856D01*
X4198162Y-22524974D01*
X4195064Y-22527514D01*
X4192778Y-22530765D01*
X4192117Y-22532238D01*
X4191203Y-22536099D01*
X4191101Y-22638512D01*
X4191609Y-22641661D01*
X4192422Y-22643896D01*
X4194048Y-22646640D01*
X4195622Y-22648468D01*
X4197502Y-22649992D01*
X4199534Y-22651212D01*
X4202531Y-22652278D01*
X4205681Y-22652685D01*
X4208881Y-22652431D01*
X4211929Y-22651516D01*
X4215384Y-22649484D01*
X4216552Y-22648468D01*
X4218127Y-22646640D01*
X4219752Y-22643896D01*
X4220768Y-22640848D01*
X4221124Y-22637699D01*
X4221073Y-22536912D01*
X4220921Y-22535337D01*
X4220362Y-22533000D01*
X4218584Y-22529393D01*
X4217670Y-22528123D01*
X4215993Y-22526396D01*
X4214063Y-22524974D01*
X4211929Y-22523856D01*
X4208881Y-22522942D01*
G37*
G36*
X4455718Y-22522688D02*
G01*
X4452569Y-22523145D01*
X4448860Y-22524567D01*
X4446828Y-22525888D01*
X4444085Y-22528733D01*
X4442460Y-22531476D01*
X4441444Y-22534524D01*
X4441088Y-22537674D01*
X4441139Y-22638512D01*
X4441647Y-22641661D01*
X4443171Y-22645319D01*
X4444542Y-22647249D01*
X4447489Y-22649992D01*
X4449572Y-22651212D01*
X4452569Y-22652278D01*
X4455718Y-22652685D01*
X4458868Y-22652431D01*
X4461967Y-22651516D01*
X4464761Y-22649992D01*
X4467148Y-22647859D01*
X4469434Y-22644608D01*
X4470095Y-22643185D01*
X4471009Y-22639274D01*
X4471111Y-22536912D01*
X4470603Y-22533762D01*
X4469790Y-22531476D01*
X4468164Y-22528733D01*
X4465370Y-22525888D01*
X4461967Y-22523856D01*
X4458106Y-22522840D01*
G37*
G36*
X4355693Y-22522688D02*
G01*
X4352544Y-22523145D01*
X4350258Y-22523856D01*
X4348175Y-22524974D01*
X4345076Y-22527514D01*
X4342790Y-22530765D01*
X4342130Y-22532238D01*
X4341215Y-22536099D01*
X4341114Y-22638512D01*
X4341622Y-22641661D01*
X4342434Y-22643896D01*
X4344060Y-22646640D01*
X4345635Y-22648468D01*
X4347514Y-22649992D01*
X4349546Y-22651212D01*
X4352544Y-22652278D01*
X4355693Y-22652685D01*
X4358894Y-22652431D01*
X4361942Y-22651516D01*
X4365396Y-22649484D01*
X4366564Y-22648468D01*
X4368139Y-22646640D01*
X4369765Y-22643896D01*
X4370781Y-22640848D01*
X4371136Y-22637699D01*
X4371086Y-22536912D01*
X4370933Y-22535337D01*
X4370374Y-22533000D01*
X4368596Y-22529393D01*
X4367682Y-22528123D01*
X4366006Y-22526396D01*
X4364075Y-22524974D01*
X4361942Y-22523856D01*
X4358894Y-22522942D01*
G37*
G36*
X4155694Y-22522688D02*
G01*
X4152544Y-22523145D01*
X4150258Y-22523856D01*
X4148175Y-22524974D01*
X4145076Y-22527514D01*
X4142790Y-22530765D01*
X4142130Y-22532238D01*
X4141215Y-22536099D01*
X4141114Y-22638512D01*
X4141622Y-22641661D01*
X4142435Y-22643896D01*
X4144060Y-22646640D01*
X4145635Y-22648468D01*
X4147515Y-22649992D01*
X4149547Y-22651212D01*
X4152544Y-22652278D01*
X4155694Y-22652685D01*
X4158894Y-22652431D01*
X4161942Y-22651516D01*
X4165396Y-22649484D01*
X4166565Y-22648468D01*
X4168140Y-22646640D01*
X4169765Y-22643896D01*
X4170781Y-22640848D01*
X4171137Y-22637699D01*
X4171086Y-22536912D01*
X4170934Y-22535337D01*
X4170375Y-22533000D01*
X4168597Y-22529393D01*
X4167682Y-22528123D01*
X4166006Y-22526396D01*
X4164076Y-22524974D01*
X4161942Y-22523856D01*
X4158894Y-22522942D01*
G37*
G36*
X4555693Y-22522688D02*
G01*
X4552543Y-22523145D01*
X4550257Y-22523856D01*
X4546854Y-22525888D01*
X4544060Y-22528733D01*
X4542434Y-22531476D01*
X4541621Y-22533762D01*
X4541113Y-22536912D01*
X4541215Y-22639274D01*
X4542129Y-22643185D01*
X4543602Y-22645979D01*
X4545076Y-22647859D01*
X4547463Y-22649992D01*
X4550257Y-22651516D01*
X4553356Y-22652431D01*
X4556506Y-22652685D01*
X4559655Y-22652278D01*
X4562652Y-22651212D01*
X4564735Y-22649992D01*
X4567682Y-22647249D01*
X4569053Y-22645319D01*
X4570577Y-22641661D01*
X4571085Y-22638512D01*
X4571034Y-22536099D01*
X4570780Y-22534524D01*
X4569764Y-22531476D01*
X4568139Y-22528733D01*
X4565396Y-22525888D01*
X4563364Y-22524567D01*
X4559655Y-22523145D01*
G37*
D10*
G01*
X21579179Y-30607000D03*
G01*
X20234198Y-30861000D03*
G01*
X20169479Y-26289000D03*
G01*
X18824498Y-26543000D03*
G01*
X738479Y-26289000D03*
G01*
X-606501Y-26543000D03*
G01*
X2897479Y-26289000D03*
G01*
X1552498Y-26543000D03*
G01*
X5056479Y-26289000D03*
G01*
X3711498Y-26543000D03*
G01*
X7215479Y-26289000D03*
G01*
X5870498Y-26543000D03*
G01*
X9374479Y-26289000D03*
G01*
X8029498Y-26543000D03*
G01*
X11533479Y-26289000D03*
G01*
X10188498Y-26543000D03*
G01*
X13692479Y-26289000D03*
G01*
X12347498Y-26543000D03*
G01*
X15851479Y-26289000D03*
G01*
X14506498Y-26543000D03*
G01*
X18010479Y-26289000D03*
G01*
X16665498Y-26543000D03*
G01*
X23738179Y-30607000D03*
G01*
X22393198Y-30861000D03*
G01*
X18302579Y-32766000D03*
G01*
X16957598Y-33020000D03*
G01*
X22328479Y-26289000D03*
G01*
X20983498Y-26543000D03*
G01*
X20461579Y-32766000D03*
G01*
X19116598Y-33020000D03*
G01*
X22620579Y-32766000D03*
G01*
X21275598Y-33020000D03*
G01*
X24487479Y-26289000D03*
G01*
X23142498Y-26543000D03*
G01*
X2148179Y-30607000D03*
G01*
X803198Y-30861000D03*
G01*
X2897479Y-34925000D03*
G01*
X1552498Y-35179000D03*
G01*
X25109779Y-34899600D03*
G01*
X23764798Y-35153600D03*
G01*
X11825579Y-32766000D03*
G01*
X10480598Y-33020000D03*
G01*
X27052879Y-26289000D03*
G01*
X25707898Y-26543000D03*
G01*
X7502906Y-32766000D03*
G01*
X6157925Y-33020000D03*
G01*
X-1420520Y-30607000D03*
G01*
X-2765501Y-30861000D03*
G01*
X-1420520Y-34925000D03*
G01*
X-2765501Y-35179000D03*
G01*
X6466179Y-30607000D03*
G01*
X5121198Y-30861000D03*
G01*
X26646479Y-24130000D03*
G01*
X25301498Y-24384000D03*
G01*
X5462879Y-28448000D03*
G01*
X4117898Y-28702000D03*
G01*
X27243379Y-30607000D03*
G01*
X25898398Y-30861000D03*
G01*
X-1420520Y-24130000D03*
G01*
X-2765501Y-24384000D03*
G01*
X8625179Y-30607000D03*
G01*
X7280198Y-30861000D03*
G01*
X738479Y-24130000D03*
G01*
X-606501Y-24384000D03*
G01*
X2897479Y-24130000D03*
G01*
X1552498Y-24384000D03*
G01*
X5056479Y-24130000D03*
G01*
X3711498Y-24384000D03*
G01*
X7215479Y-24130000D03*
G01*
X5870498Y-24384000D03*
G01*
X9374479Y-24130000D03*
G01*
X8029498Y-24384000D03*
G01*
X11533479Y-24130000D03*
G01*
X10188498Y-24384000D03*
G01*
X13692479Y-24130000D03*
G01*
X12347498Y-24384000D03*
G01*
X15851479Y-24130000D03*
G01*
X14506498Y-24384000D03*
G01*
X18010479Y-24130000D03*
G01*
X16665498Y-24384000D03*
G01*
X20169479Y-24130000D03*
G01*
X18824498Y-24384000D03*
G01*
X22328479Y-24130000D03*
G01*
X20983498Y-24384000D03*
G01*
X24487479Y-24130000D03*
G01*
X23142498Y-24384000D03*
G01*
X738479Y-34925000D03*
G01*
X-606501Y-35179000D03*
G01*
X10784179Y-30607000D03*
G01*
X9439198Y-30861000D03*
G01*
X12943179Y-30607000D03*
G01*
X11598198Y-30861000D03*
G01*
X16257879Y-28448000D03*
G01*
X14912898Y-28702000D03*
G01*
X15102179Y-30607000D03*
G01*
X13757198Y-30861000D03*
G01*
X17261179Y-30594300D03*
G01*
X15916198Y-30848300D03*
G01*
X19420179Y-30607000D03*
G01*
X18075198Y-30861000D03*
G01*
X-1420520Y-32766000D03*
G01*
X-2765501Y-33020000D03*
G01*
X16143579Y-32766000D03*
G01*
X14798598Y-33020000D03*
G01*
X13984579Y-32766000D03*
G01*
X12639598Y-33020000D03*
G01*
X18416879Y-28448000D03*
G01*
X17071898Y-28702000D03*
G01*
X20575879Y-28448000D03*
G01*
X19230898Y-28702000D03*
G01*
X1144879Y-28448000D03*
G01*
X-200101Y-28702000D03*
G01*
X7621879Y-28448000D03*
G01*
X6276898Y-28702000D03*
G01*
X27243379Y-32766000D03*
G01*
X25898398Y-33020000D03*
G01*
X4307179Y-30607000D03*
G01*
X2962198Y-30861000D03*
G01*
X13959179Y-34925000D03*
G01*
X12614198Y-35179000D03*
G01*
X9780879Y-28448000D03*
G01*
X8435898Y-28702000D03*
G01*
X-1420520Y-28448000D03*
G01*
X-2765501Y-28702000D03*
G01*
X14098879Y-28448000D03*
G01*
X12753898Y-28702000D03*
G01*
X9666579Y-32766000D03*
G01*
X8321598Y-33020000D03*
G01*
X3303879Y-28448000D03*
G01*
X1958898Y-28702000D03*
G01*
X5056479Y-34925000D03*
G01*
X3711498Y-35179000D03*
G01*
X22950779Y-34899600D03*
G01*
X21605798Y-35153600D03*
G01*
X5348579Y-32766000D03*
G01*
X4003598Y-33020000D03*
G01*
X11939879Y-28448000D03*
G01*
X10594898Y-28702000D03*
G01*
X3189579Y-32766000D03*
G01*
X1844598Y-33020000D03*
G01*
X22734879Y-28448000D03*
G01*
X21389898Y-28702000D03*
G01*
X27052879Y-28448000D03*
G01*
X25707898Y-28702000D03*
G01*
X24893879Y-28448000D03*
G01*
X23548898Y-28702000D03*
G01*
X-1420520Y-26289000D03*
G01*
X-2765501Y-26543000D03*
G01*
X27268779Y-34899600D03*
G01*
X25923798Y-35153600D03*
M02*
