M48
METRIC,LZ,000.000
;FILE_FORMAT=3:3
;TYPE=PLATED
;Layer: PTH_Through
;EasyEDA v6.5.57, 2026-08-18 01:07:36
;068f1d916a534ec4bf71ff9ef772e69e,740549724bca42c3b7f260a0217f19ee,10
;Gerber Generator version 0.2
;Holesize 1 = 0.310 mm
T01C0.310
;Holesize 2 = 0.600 mm
T02C0.600
;Holesize 3 = 0.900 mm
T03C0.900
;Holesize 4 = 0.901 mm
T04C0.901
%
G05
G90
T01
X007385Y-262890
X050546Y-241300
X072136Y-241300
X-006096Y-243713
X037084Y-243840
X058801Y-243713
X101854Y-243840
X015946Y-265402
X-010160Y-230251
X010668Y-220853
X070993Y-216408
X030099Y-216027
X110490Y-217170
X129032Y-217805
X136144Y-218440
X186309Y-226060
X203327Y-225298
X141478Y-222250
X142748Y-221361
X142494Y-220599
X029845Y-217424
X045061Y-217551
X027051Y-220091
X028956Y-220091
X137160Y-241300
X038735Y-228727
X073279Y-228727
X215265Y-218059
X270993Y-224917
X255270Y-228219
X050165Y-218877
X032004Y-216535
X023876Y-216027
X258318Y-226187
X260985Y-226822
X080295Y-243840
X093745Y-241300
X115335Y-241300
X123475Y-243840
X145065Y-243840
X158515Y-241300
X166655Y-243840
X180105Y-241300
X188245Y-243840
X201695Y-241300
X209835Y-243840
X223285Y-241300
X231425Y-243840
X244875Y-241300
X253015Y-243840
X266465Y-241300
X-027655Y-265430
X270529Y-262890
X-006065Y-265430
X028975Y-241300
X028975Y-262890
X037115Y-265430
X050565Y-262890
X058705Y-265430
X072155Y-262890
X080295Y-265430
X093745Y-262890
X101885Y-265430
X115335Y-262890
X123475Y-265430
X136925Y-262890
X145065Y-265430
X158515Y-262890
X166655Y-265430
X180105Y-262890
X188245Y-265430
X201695Y-262890
X209835Y-265430
X223285Y-262890
X231425Y-265430
X244875Y-262890
X-027655Y-287020
X-014205Y-284480
X019589Y-287020
X-002001Y-287020
X041179Y-287020
X062769Y-287020
X084359Y-287020
X105949Y-287020
X127539Y-287020
X149129Y-287020
X170719Y-287020
X192309Y-287020
X213899Y-287020
X235489Y-287020
X257079Y-287020
X270529Y-284480
X008032Y-308610
X029622Y-308610
X072802Y-308610
X094392Y-308610
X115982Y-308610
X137572Y-308610
X159162Y-308483
X180752Y-308610
X202342Y-308610
X223932Y-308610
X272434Y-306070
X258984Y-308610
X272434Y-327660
X272688Y-348996
X237648Y-351536
X259238Y-351536
X-014205Y-241300
X-014205Y-262890
X-014205Y-306070
X-014205Y-327660
X-014205Y-349250
X-027655Y-308610
X-027655Y-330200
X-006065Y-351790
X015525Y-351790
X037115Y-351790
X015525Y-243840
X007385Y-349250
X021482Y-306070
X011449Y-284480
X007385Y-241300
X051212Y-308610
X033039Y-284480
X043072Y-306070
X031896Y-327660
X028975Y-349250
X053486Y-327660
X064662Y-306070
X054629Y-284480
X050565Y-349250
X075029Y-327660
X086252Y-306070
X076219Y-284480
X018446Y-330200
X040036Y-330200
X061579Y-330200
X083216Y-330200
X104806Y-330200
X126396Y-330200
X147986Y-330200
X169576Y-330200
X191166Y-330200
X212756Y-330200
X258984Y-330200
X097809Y-284480
X107842Y-306070
X096666Y-327660
X119399Y-284480
X129432Y-306070
X118256Y-327660
X139846Y-327660
X151022Y-306070
X140989Y-284480
X161436Y-327660
X172612Y-305943
X162579Y-284480
X184169Y-284480
X194202Y-306070
X183026Y-327660
X204616Y-327660
X215792Y-306070
X205759Y-284480
X251098Y-348996
X226206Y-327660
X237382Y-306070
X227349Y-284480
X248939Y-284480
X257079Y-265430
X-027655Y-351790
X-027655Y-243840
X139592Y-349250
X126142Y-351790
X229508Y-348996
X216058Y-351536
X050419Y-227457
T02
X269868Y-222609G85X269868Y-223509
X278518Y-222609G85X278518Y-223509
X269868Y-218559G85X269868Y-219159
X278518Y-218559G85X278518Y-219159
T03
X015240Y-228854
X022860Y-228854
X279400Y-226060
X279400Y-233680
X266573Y-226060
X266573Y-218440
T04
X256794Y-364707
X256794Y-356907
X228092Y-278093
X228092Y-270293
X120777Y-278220
X120777Y-270420
X141732Y-256503
X141732Y-248703
X055753Y-256503
X055753Y-248703
X113919Y-321527
X113919Y-313727
X-032893Y-256503
X-032893Y-248703
X-008509Y-256503
X-008509Y-248703
X033782Y-256376
X033782Y-248576
X077089Y-256503
X077089Y-248703
X098552Y-256503
X098552Y-248703
X120396Y-256503
X120396Y-248703
X013335Y-256503
X013335Y-248703
X163449Y-256503
X163449Y-248703
X185801Y-256503
X185801Y-248703
X206248Y-256503
X206248Y-248703
X228727Y-256503
X228727Y-248703
X250190Y-256503
X250190Y-248703
X-033020Y-278347
X-033020Y-270547
X255016Y-278474
X255016Y-270674
X206121Y-278093
X206121Y-270293
X185420Y-278093
X185420Y-270293
X163576Y-278093
X163576Y-270293
X142240Y-278220
X142240Y-270420
X099187Y-278220
X099187Y-270420
X076835Y-278220
X076835Y-270420
X055118Y-278220
X055118Y-270420
X033274Y-278347
X033274Y-270547
X012446Y-278474
X012446Y-270674
X-009525Y-278474
X-009525Y-270674
X-033020Y-298794
X-033020Y-290994
X255270Y-298667
X255270Y-290867
X211836Y-298667
X211836Y-290867
X190373Y-298794
X190373Y-290994
X168529Y-298667
X168529Y-290867
X146939Y-298794
X146939Y-290994
X125476Y-298794
X125476Y-290994
X103378Y-298794
X103378Y-290994
X081661Y-298794
X081661Y-290994
X060452Y-298794
X060452Y-290994
X038608Y-298794
X038608Y-290994
X016637Y-298667
X016637Y-290867
X-004826Y-298667
X-004826Y-290867
X-032893Y-321527
X-032893Y-313727
X255651Y-321527
X255651Y-313727
X221742Y-321654
X221742Y-313854
X200152Y-321527
X200152Y-313727
X178689Y-321527
X178689Y-313727
X156972Y-321527
X156972Y-313727
X135636Y-321527
X135636Y-313727
X092456Y-321527
X092456Y-313727
X070485Y-321527
X070485Y-313727
X049149Y-321654
X049149Y-313854
X027559Y-321527
X027559Y-313727
X004953Y-321527
X004953Y-313727
X-032893Y-344387
X-032893Y-336587
X255905Y-344260
X255905Y-336460
X210693Y-344387
X210693Y-336587
X189103Y-344387
X189103Y-336587
X167513Y-344387
X167513Y-336587
X146050Y-344387
X146050Y-336587
X124841Y-344514
X124841Y-336714
X102616Y-344514
X102616Y-336714
X080899Y-344387
X080899Y-336587
X059436Y-344514
X059436Y-336714
X037338Y-344514
X037338Y-336714
X015240Y-344387
X015240Y-336587
X-032893Y-364834
X-032893Y-357034
X233426Y-298667
X233426Y-290867
X235331Y-364834
X235331Y-357034
X211201Y-364834
X211201Y-357034
X116205Y-364834
X116205Y-357034
X035306Y-364834
X035306Y-357034
X013843Y-364834
X013843Y-357034
X-008382Y-364834
X-008382Y-357034
M30
