M48
METRIC,LZ,000.000
;FILE_FORMAT=3:3
;TYPE=NON_PLATED
;Layer: NPTH_Through
;EasyEDA v6.5.57, 2026-08-18 01:07:36
;068f1d916a534ec4bf71ff9ef772e69e,740549724bca42c3b7f260a0217f19ee,10
;Gerber Generator version 0.2
;Holesize 1 = 0.701 mm
T01C0.701
;Holesize 2 = 2.901 mm
T02C2.901
;Holesize 3 = 3.101 mm
T03C3.101
;Holesize 4 = 4.064 mm
T04C4.064
;Holesize 5 = 4.200 mm
T05C4.200
%
G05
G90
T01
X271303Y-222539
X277083Y-222539
T02
X212267Y-306070
X205867Y-308610
X198170Y-262890
X191770Y-265430
X003860Y-262890
X-002540Y-265430
X025450Y-262890
X019050Y-265430
X047040Y-262890
X040640Y-265430
X068630Y-262890
X062230Y-265430
X090220Y-262890
X083820Y-265430
X111810Y-262890
X105410Y-265430
X133400Y-262890
X127000Y-265430
X154990Y-262890
X148590Y-265430
X176580Y-262890
X170180Y-265430
X233857Y-306070
X227457Y-308610
X179501Y-327660
X173101Y-330200
X219760Y-262890
X213360Y-265430
X201091Y-327660
X194691Y-330200
X222681Y-327660
X216281Y-330200
X241350Y-262890
X234950Y-265430
X017957Y-306070
X011557Y-308610
X025450Y-349250
X019050Y-351790
X247573Y-348996
X241173Y-351536
X114731Y-327660
X108331Y-330200
X267004Y-262890
X260604Y-265430
X071504Y-327660
X065105Y-330200
X-017730Y-306070
X-024130Y-308610
X-017730Y-349250
X-024130Y-351790
X061137Y-306070
X054737Y-308610
X262940Y-241300
X256540Y-243840
X051104Y-284480
X044704Y-287020
X268909Y-306070
X262509Y-308610
X-017730Y-241300
X-024130Y-243840
X082727Y-306070
X076327Y-308610
X003860Y-241300
X-002540Y-243840
X025450Y-241300
X019050Y-243840
X047040Y-241300
X040640Y-243840
X068630Y-241300
X062230Y-243840
X090220Y-241300
X083820Y-243840
X111810Y-241300
X105410Y-243840
X133400Y-241300
X127000Y-243840
X154990Y-241300
X148590Y-243840
X176580Y-241300
X170180Y-243840
X198170Y-241300
X191770Y-243840
X219760Y-241300
X213360Y-243840
X241350Y-241300
X234950Y-243840
X003860Y-349250
X-002540Y-351790
X104317Y-306070
X097917Y-308610
X125907Y-306070
X119507Y-308610
X159054Y-284480
X152654Y-287020
X147497Y-306070
X141097Y-308610
X169087Y-305943
X162687Y-308483
X190677Y-306070
X184277Y-308610
X-017730Y-327660
X-024130Y-330200
X157911Y-327660
X151511Y-330200
X136321Y-327660
X129921Y-330200
X180644Y-284480
X174244Y-287020
X202234Y-284480
X195834Y-287020
X007924Y-284480
X001524Y-287020
X072694Y-284480
X066294Y-287020
X268909Y-327660
X262509Y-330200
X039547Y-306070
X033147Y-308610
X136067Y-349250
X129667Y-351790
X094284Y-284480
X087884Y-287020
X-017730Y-284480
X-024130Y-287020
X137464Y-284480
X131064Y-287020
X093141Y-327660
X086741Y-330200
X029514Y-284480
X023114Y-287020
X047040Y-349250
X040640Y-351790
X225983Y-348996
X219583Y-351536
X049961Y-327660
X043561Y-330200
X115874Y-284480
X109474Y-287020
X028371Y-327660
X021971Y-330200
X223824Y-284480
X217424Y-287020
X267004Y-284480
X260604Y-287020
X245414Y-284480
X239014Y-287020
X-017730Y-262890
X-024130Y-265430
X269163Y-348996
X262763Y-351536
T03
X145415Y-347472
X121539Y-347472
T04
X121539Y-362712
X145415Y-362712
T05
X209677Y-311150
X195580Y-267970
X001270Y-267970
X022860Y-267970
X044450Y-267970
X066040Y-267970
X087630Y-267970
X109220Y-267970
X130810Y-267970
X152400Y-267970
X173990Y-267970
X231267Y-311150
X176911Y-332740
X217170Y-267970
X198501Y-332740
X220091Y-332740
X238760Y-267970
X015367Y-311150
X022860Y-354330
X244983Y-354076
X112141Y-332740
X264414Y-267970
X068915Y-332740
X-020320Y-311150
X-020320Y-354330
X058547Y-311150
X260350Y-246380
X048514Y-289560
X266319Y-311150
X-020320Y-246380
X080137Y-311150
X001270Y-246380
X022860Y-246380
X044450Y-246380
X066040Y-246380
X087630Y-246380
X109220Y-246380
X130810Y-246380
X152400Y-246380
X173990Y-246380
X195580Y-246380
X217170Y-246380
X238760Y-246380
X001270Y-354330
X101727Y-311150
X123317Y-311150
X156464Y-289560
X144907Y-311150
X166497Y-311023
X188087Y-311150
X-020320Y-332740
X155321Y-332740
X133731Y-332740
X178054Y-289560
X199644Y-289560
X005334Y-289560
X070104Y-289560
X266319Y-332740
X036957Y-311150
X133477Y-354330
X091694Y-289560
X-020320Y-289560
X134874Y-289560
X090551Y-332740
X026924Y-289560
X044450Y-354330
X223393Y-354076
X047371Y-332740
X113284Y-289560
X025781Y-332740
X221234Y-289560
X264414Y-289560
X242824Y-289560
X-020320Y-267970
X266573Y-354076
M30
