M48
METRIC,LZ,000.000
;FILE_FORMAT=3:3
;TYPE=PLATED
;Layer: PTH_Through_Via
;EasyEDA v6.5.57, 2026-08-18 01:07:36
;068f1d916a534ec4bf71ff9ef772e69e,740549724bca42c3b7f260a0217f19ee,10
;Gerber Generator version 0.2
;Holesize 1 = 0.310 mm
T01C0.310
%
G05
G90
T01
X007385Y-262890
X050546Y-241300
X072136Y-241300
X-006096Y-243713
X037084Y-243840
X058801Y-243713
X101854Y-243840
X015946Y-265402
X-010160Y-230251
X010668Y-220853
X070993Y-216408
X030099Y-216027
X110490Y-217170
X129032Y-217805
X136144Y-218440
X186309Y-226060
X203327Y-225298
X141478Y-222250
X142748Y-221361
X142494Y-220599
X029845Y-217424
X045061Y-217551
X027051Y-220091
X028956Y-220091
X137160Y-241300
X038735Y-228727
X073279Y-228727
X215265Y-218059
X270993Y-224917
X255270Y-228219
X050165Y-218877
X032004Y-216535
X023876Y-216027
X258318Y-226187
X260985Y-226822
X080295Y-243840
X093745Y-241300
X115335Y-241300
X123475Y-243840
X145065Y-243840
X158515Y-241300
X166655Y-243840
X180105Y-241300
X188245Y-243840
X201695Y-241300
X209835Y-243840
X223285Y-241300
X231425Y-243840
X244875Y-241300
X253015Y-243840
X266465Y-241300
X-027655Y-265430
X270529Y-262890
X-006065Y-265430
X028975Y-241300
X028975Y-262890
X037115Y-265430
X050565Y-262890
X058705Y-265430
X072155Y-262890
X080295Y-265430
X093745Y-262890
X101885Y-265430
X115335Y-262890
X123475Y-265430
X136925Y-262890
X145065Y-265430
X158515Y-262890
X166655Y-265430
X180105Y-262890
X188245Y-265430
X201695Y-262890
X209835Y-265430
X223285Y-262890
X231425Y-265430
X244875Y-262890
X-027655Y-287020
X-014205Y-284480
X019589Y-287020
X-002001Y-287020
X041179Y-287020
X062769Y-287020
X084359Y-287020
X105949Y-287020
X127539Y-287020
X149129Y-287020
X170719Y-287020
X192309Y-287020
X213899Y-287020
X235489Y-287020
X257079Y-287020
X270529Y-284480
X008032Y-308610
X029622Y-308610
X072802Y-308610
X094392Y-308610
X115982Y-308610
X137572Y-308610
X159162Y-308483
X180752Y-308610
X202342Y-308610
X223932Y-308610
X272434Y-306070
X258984Y-308610
X272434Y-327660
X272688Y-348996
X237648Y-351536
X259238Y-351536
X-014205Y-241300
X-014205Y-262890
X-014205Y-306070
X-014205Y-327660
X-014205Y-349250
X-027655Y-308610
X-027655Y-330200
X-006065Y-351790
X015525Y-351790
X037115Y-351790
X015525Y-243840
X007385Y-349250
X021482Y-306070
X011449Y-284480
X007385Y-241300
X051212Y-308610
X033039Y-284480
X043072Y-306070
X031896Y-327660
X028975Y-349250
X053486Y-327660
X064662Y-306070
X054629Y-284480
X050565Y-349250
X075029Y-327660
X086252Y-306070
X076219Y-284480
X018446Y-330200
X040036Y-330200
X061579Y-330200
X083216Y-330200
X104806Y-330200
X126396Y-330200
X147986Y-330200
X169576Y-330200
X191166Y-330200
X212756Y-330200
X258984Y-330200
X097809Y-284480
X107842Y-306070
X096666Y-327660
X119399Y-284480
X129432Y-306070
X118256Y-327660
X139846Y-327660
X151022Y-306070
X140989Y-284480
X161436Y-327660
X172612Y-305943
X162579Y-284480
X184169Y-284480
X194202Y-306070
X183026Y-327660
X204616Y-327660
X215792Y-306070
X205759Y-284480
X251098Y-348996
X226206Y-327660
X237382Y-306070
X227349Y-284480
X248939Y-284480
X257079Y-265430
X-027655Y-351790
X-027655Y-243840
X139592Y-349250
X126142Y-351790
X229508Y-348996
X216058Y-351536
X050419Y-227457
M30
